<mxfile host="Electron" agent="Mozilla/5.0 (X11; Linux x86_64) AppleWebKit/537.36 (KHTML, like Gecko) draw.io/27.0.5 Chrome/134.0.6998.205 Electron/35.3.0 Safari/537.36" version="27.0.5">
  <diagram name="Page-1" id="hSbz8sfhkRv2dt6Nuemm">
    <mxGraphModel dx="1653" dy="963" grid="1" gridSize="10" guides="1" tooltips="1" connect="1" arrows="1" fold="1" page="1" pageScale="1" pageWidth="850" pageHeight="1100" math="0" shadow="0">
      <root>
        <mxCell id="0" />
        <mxCell id="1" parent="0" />
        <mxCell id="dKJm6D22h-IE7gDkArMl-2" value="brakeDiskUncertaintyOne: Uncertainty" style="html=1;whiteSpace=wrap;fillColor=#0050ef;fontColor=#ffffff;strokeColor=#001DBC;" vertex="1" parent="1">
          <mxGeometry x="20" y="60" width="160" height="60" as="geometry" />
        </mxCell>
        <mxCell id="dKJm6D22h-IE7gDkArMl-4" value="circleUncertaintyOne: Uncertainty" style="html=1;whiteSpace=wrap;fillColor=#60a917;fontColor=#ffffff;strokeColor=#2D7600;" vertex="1" parent="1">
          <mxGeometry x="340" y="60" width="160" height="60" as="geometry" />
        </mxCell>
        <mxCell id="dKJm6D22h-IE7gDkArMl-8" value="" style="endArrow=none;startArrow=none;endFill=0;startFill=0;endSize=8;html=1;verticalAlign=bottom;labelBackgroundColor=none;strokeWidth=3;rounded=0;entryX=0;entryY=0.5;entryDx=0;entryDy=0;exitX=1;exitY=0.5;exitDx=0;exitDy=0;" edge="1" parent="1" source="dKJm6D22h-IE7gDkArMl-2" target="dKJm6D22h-IE7gDkArMl-4">
          <mxGeometry width="160" relative="1" as="geometry">
            <mxPoint x="200" y="90" as="sourcePoint" />
            <mxPoint x="320" y="94" as="targetPoint" />
          </mxGeometry>
        </mxCell>
        <mxCell id="dKJm6D22h-IE7gDkArMl-9" value="Corresponding" style="edgeLabel;html=1;align=center;verticalAlign=middle;resizable=0;points=[];" vertex="1" connectable="0" parent="dKJm6D22h-IE7gDkArMl-8">
          <mxGeometry x="0.0048" y="-1" relative="1" as="geometry">
            <mxPoint as="offset" />
          </mxGeometry>
        </mxCell>
        <mxCell id="dKJm6D22h-IE7gDkArMl-12" value="brakeDiskLocationOne: UncertaintyLocation" style="html=1;whiteSpace=wrap;fillColor=#0050ef;fontColor=#ffffff;strokeColor=#001DBC;" vertex="1" parent="1">
          <mxGeometry x="20" y="180" width="160" height="60" as="geometry" />
        </mxCell>
        <mxCell id="dKJm6D22h-IE7gDkArMl-13" value="" style="endArrow=none;startArrow=none;endFill=0;startFill=0;endSize=8;html=1;verticalAlign=bottom;labelBackgroundColor=none;strokeWidth=3;rounded=0;exitX=0.5;exitY=1;exitDx=0;exitDy=0;entryX=0.5;entryY=0;entryDx=0;entryDy=0;" edge="1" parent="1" source="dKJm6D22h-IE7gDkArMl-2" target="dKJm6D22h-IE7gDkArMl-12">
          <mxGeometry width="160" relative="1" as="geometry">
            <mxPoint x="120" y="140" as="sourcePoint" />
            <mxPoint x="120" y="160" as="targetPoint" />
          </mxGeometry>
        </mxCell>
        <mxCell id="dKJm6D22h-IE7gDkArMl-14" value="uncertainty Location" style="edgeLabel;html=1;align=center;verticalAlign=middle;resizable=0;points=[];" vertex="1" connectable="0" parent="dKJm6D22h-IE7gDkArMl-13">
          <mxGeometry x="0.0048" y="-1" relative="1" as="geometry">
            <mxPoint as="offset" />
          </mxGeometry>
        </mxCell>
        <mxCell id="dKJm6D22h-IE7gDkArMl-15" value="circleLocationOne: UncertaintyLocation" style="html=1;whiteSpace=wrap;fillColor=#60a917;fontColor=#ffffff;strokeColor=#2D7600;" vertex="1" parent="1">
          <mxGeometry x="340" y="180" width="160" height="60" as="geometry" />
        </mxCell>
        <mxCell id="dKJm6D22h-IE7gDkArMl-16" value="" style="endArrow=none;startArrow=none;endFill=0;startFill=0;endSize=8;html=1;verticalAlign=bottom;labelBackgroundColor=none;strokeWidth=3;rounded=0;exitX=0.5;exitY=1;exitDx=0;exitDy=0;entryX=0.5;entryY=0;entryDx=0;entryDy=0;" edge="1" parent="1" source="dKJm6D22h-IE7gDkArMl-4" target="dKJm6D22h-IE7gDkArMl-15">
          <mxGeometry width="160" relative="1" as="geometry">
            <mxPoint x="420" y="130" as="sourcePoint" />
            <mxPoint x="420" y="170" as="targetPoint" />
          </mxGeometry>
        </mxCell>
        <mxCell id="dKJm6D22h-IE7gDkArMl-17" value="uncertainty Location" style="edgeLabel;html=1;align=center;verticalAlign=middle;resizable=0;points=[];" vertex="1" connectable="0" parent="dKJm6D22h-IE7gDkArMl-16">
          <mxGeometry x="0.0048" y="-1" relative="1" as="geometry">
            <mxPoint as="offset" />
          </mxGeometry>
        </mxCell>
        <mxCell id="dKJm6D22h-IE7gDkArMl-18" value="brakeDisk: BrakeDisk" style="html=1;whiteSpace=wrap;fillColor=#0050ef;fontColor=#ffffff;strokeColor=#001DBC;" vertex="1" parent="1">
          <mxGeometry x="20" y="300" width="160" height="40" as="geometry" />
        </mxCell>
        <mxCell id="dKJm6D22h-IE7gDkArMl-19" value="" style="endArrow=none;startArrow=none;endFill=0;startFill=0;endSize=8;html=1;verticalAlign=bottom;labelBackgroundColor=none;strokeWidth=3;rounded=0;exitX=0.5;exitY=1;exitDx=0;exitDy=0;entryX=0.5;entryY=0;entryDx=0;entryDy=0;" edge="1" parent="1" source="dKJm6D22h-IE7gDkArMl-12" target="dKJm6D22h-IE7gDkArMl-18">
          <mxGeometry width="160" relative="1" as="geometry">
            <mxPoint x="140" y="240" as="sourcePoint" />
            <mxPoint x="140" y="300" as="targetPoint" />
            <Array as="points">
              <mxPoint x="100" y="290" />
            </Array>
          </mxGeometry>
        </mxCell>
        <mxCell id="dKJm6D22h-IE7gDkArMl-20" value="referencedComponents" style="edgeLabel;html=1;align=center;verticalAlign=middle;resizable=0;points=[];" vertex="1" connectable="0" parent="dKJm6D22h-IE7gDkArMl-19">
          <mxGeometry x="0.0048" y="-1" relative="1" as="geometry">
            <mxPoint x="1" as="offset" />
          </mxGeometry>
        </mxCell>
        <mxCell id="dKJm6D22h-IE7gDkArMl-24" value="" style="endArrow=none;startArrow=none;endFill=0;startFill=0;endSize=8;html=1;verticalAlign=bottom;labelBackgroundColor=none;strokeWidth=3;rounded=0;exitX=0.5;exitY=1;exitDx=0;exitDy=0;entryX=0.5;entryY=0;entryDx=0;entryDy=0;" edge="1" parent="1" source="dKJm6D22h-IE7gDkArMl-15" target="dKJm6D22h-IE7gDkArMl-26">
          <mxGeometry width="160" relative="1" as="geometry">
            <mxPoint x="420" y="250" as="sourcePoint" />
            <mxPoint x="420" y="280" as="targetPoint" />
            <Array as="points">
              <mxPoint x="419.81" y="290" />
            </Array>
          </mxGeometry>
        </mxCell>
        <mxCell id="dKJm6D22h-IE7gDkArMl-25" value="referencedComponents" style="edgeLabel;html=1;align=center;verticalAlign=middle;resizable=0;points=[];" vertex="1" connectable="0" parent="dKJm6D22h-IE7gDkArMl-24">
          <mxGeometry x="0.0048" y="-1" relative="1" as="geometry">
            <mxPoint x="1" as="offset" />
          </mxGeometry>
        </mxCell>
        <mxCell id="dKJm6D22h-IE7gDkArMl-26" value="circle: Circle" style="html=1;whiteSpace=wrap;fillColor=#60a917;fontColor=#ffffff;strokeColor=#2D7600;" vertex="1" parent="1">
          <mxGeometry x="340" y="300" width="160" height="40" as="geometry" />
        </mxCell>
        <mxCell id="dKJm6D22h-IE7gDkArMl-27" value="" style="endArrow=none;startArrow=none;endFill=0;startFill=0;endSize=8;html=1;verticalAlign=bottom;labelBackgroundColor=none;strokeWidth=3;rounded=0;entryX=0;entryY=0.5;entryDx=0;entryDy=0;exitX=1;exitY=0.5;exitDx=0;exitDy=0;" edge="1" parent="1" source="dKJm6D22h-IE7gDkArMl-18" target="dKJm6D22h-IE7gDkArMl-26">
          <mxGeometry width="160" relative="1" as="geometry">
            <mxPoint x="170" y="299.68" as="sourcePoint" />
            <mxPoint x="330" y="299.68" as="targetPoint" />
          </mxGeometry>
        </mxCell>
        <mxCell id="dKJm6D22h-IE7gDkArMl-28" value="Corresponding" style="edgeLabel;html=1;align=center;verticalAlign=middle;resizable=0;points=[];" vertex="1" connectable="0" parent="dKJm6D22h-IE7gDkArMl-27">
          <mxGeometry x="0.0048" y="-1" relative="1" as="geometry">
            <mxPoint as="offset" />
          </mxGeometry>
        </mxCell>
        <mxCell id="dKJm6D22h-IE7gDkArMl-32" value="brakeDiskLocationTwo: UncertaintyLocation" style="html=1;whiteSpace=wrap;fillColor=#0050ef;fontColor=#ffffff;strokeColor=#001DBC;" vertex="1" parent="1">
          <mxGeometry x="20" y="400" width="160" height="60" as="geometry" />
        </mxCell>
        <mxCell id="dKJm6D22h-IE7gDkArMl-33" value="brakeDiskUncertaintyTwo: Uncertainty" style="html=1;whiteSpace=wrap;fillColor=#0050ef;fontColor=#ffffff;strokeColor=#001DBC;" vertex="1" parent="1">
          <mxGeometry x="20" y="520" width="160" height="60" as="geometry" />
        </mxCell>
        <mxCell id="dKJm6D22h-IE7gDkArMl-34" value="" style="endArrow=none;startArrow=none;endFill=0;startFill=0;endSize=8;html=1;verticalAlign=bottom;labelBackgroundColor=none;strokeWidth=3;rounded=0;entryX=0.5;entryY=0;entryDx=0;entryDy=0;exitX=0.5;exitY=1;exitDx=0;exitDy=0;" edge="1" parent="1" source="dKJm6D22h-IE7gDkArMl-32" target="dKJm6D22h-IE7gDkArMl-33">
          <mxGeometry width="160" relative="1" as="geometry">
            <mxPoint x="120" y="470" as="sourcePoint" />
            <mxPoint x="120" y="400" as="targetPoint" />
          </mxGeometry>
        </mxCell>
        <mxCell id="dKJm6D22h-IE7gDkArMl-35" value="uncertainty Location" style="edgeLabel;html=1;align=center;verticalAlign=middle;resizable=0;points=[];" vertex="1" connectable="0" parent="dKJm6D22h-IE7gDkArMl-34">
          <mxGeometry x="0.0048" y="-1" relative="1" as="geometry">
            <mxPoint as="offset" />
          </mxGeometry>
        </mxCell>
        <mxCell id="dKJm6D22h-IE7gDkArMl-36" value="" style="endArrow=none;startArrow=none;endFill=0;startFill=0;endSize=8;html=1;verticalAlign=bottom;labelBackgroundColor=none;strokeWidth=3;rounded=0;exitX=0.5;exitY=1;exitDx=0;exitDy=0;entryX=0.5;entryY=0;entryDx=0;entryDy=0;" edge="1" parent="1" source="dKJm6D22h-IE7gDkArMl-18" target="dKJm6D22h-IE7gDkArMl-32">
          <mxGeometry width="160" relative="1" as="geometry">
            <mxPoint x="200" y="340" as="sourcePoint" />
            <mxPoint x="120" y="380" as="targetPoint" />
            <Array as="points">
              <mxPoint x="100" y="370" />
            </Array>
          </mxGeometry>
        </mxCell>
        <mxCell id="dKJm6D22h-IE7gDkArMl-37" value="referencedComponents" style="edgeLabel;html=1;align=center;verticalAlign=middle;resizable=0;points=[];" vertex="1" connectable="0" parent="dKJm6D22h-IE7gDkArMl-36">
          <mxGeometry x="0.0048" y="-1" relative="1" as="geometry">
            <mxPoint x="1" as="offset" />
          </mxGeometry>
        </mxCell>
        <mxCell id="dKJm6D22h-IE7gDkArMl-38" value="circleUncertaintyOne: Uncertainty" style="html=1;whiteSpace=wrap;fillColor=#60a917;fontColor=#ffffff;strokeColor=#2D7600;" vertex="1" parent="1">
          <mxGeometry x="340" y="520" width="160" height="60" as="geometry" />
        </mxCell>
        <mxCell id="dKJm6D22h-IE7gDkArMl-39" value="circleLocationOne: UncertaintyLocation" style="html=1;whiteSpace=wrap;fillColor=#60a917;fontColor=#ffffff;strokeColor=#2D7600;" vertex="1" parent="1">
          <mxGeometry x="340" y="400" width="160" height="60" as="geometry" />
        </mxCell>
        <mxCell id="dKJm6D22h-IE7gDkArMl-40" value="" style="endArrow=none;startArrow=none;endFill=0;startFill=0;endSize=8;html=1;verticalAlign=bottom;labelBackgroundColor=none;strokeWidth=3;rounded=0;exitX=0.5;exitY=1;exitDx=0;exitDy=0;entryX=0.5;entryY=0;entryDx=0;entryDy=0;" edge="1" parent="1" source="dKJm6D22h-IE7gDkArMl-26" target="dKJm6D22h-IE7gDkArMl-39">
          <mxGeometry width="160" relative="1" as="geometry">
            <mxPoint x="410" y="350" as="sourcePoint" />
            <mxPoint x="410" y="390" as="targetPoint" />
            <Array as="points">
              <mxPoint x="419.77" y="390" />
            </Array>
          </mxGeometry>
        </mxCell>
        <mxCell id="dKJm6D22h-IE7gDkArMl-41" value="referencedComponents" style="edgeLabel;html=1;align=center;verticalAlign=middle;resizable=0;points=[];" vertex="1" connectable="0" parent="dKJm6D22h-IE7gDkArMl-40">
          <mxGeometry x="0.0048" y="-1" relative="1" as="geometry">
            <mxPoint x="1" as="offset" />
          </mxGeometry>
        </mxCell>
        <mxCell id="dKJm6D22h-IE7gDkArMl-43" value="" style="rounded=0;whiteSpace=wrap;html=1;" vertex="1" parent="1">
          <mxGeometry x="540" y="10" width="280" height="220" as="geometry" />
        </mxCell>
        <mxCell id="dKJm6D22h-IE7gDkArMl-44" value="" style="endArrow=none;startArrow=none;endFill=0;startFill=0;endSize=8;html=1;verticalAlign=bottom;labelBackgroundColor=none;strokeWidth=3;rounded=0;entryX=0.5;entryY=0;entryDx=0;entryDy=0;exitX=0.5;exitY=1;exitDx=0;exitDy=0;" edge="1" parent="1" source="dKJm6D22h-IE7gDkArMl-39" target="dKJm6D22h-IE7gDkArMl-38">
          <mxGeometry width="160" relative="1" as="geometry">
            <mxPoint x="410" y="460" as="sourcePoint" />
            <mxPoint x="410" y="520" as="targetPoint" />
          </mxGeometry>
        </mxCell>
        <mxCell id="dKJm6D22h-IE7gDkArMl-45" value="uncertainty Location" style="edgeLabel;html=1;align=center;verticalAlign=middle;resizable=0;points=[];" vertex="1" connectable="0" parent="dKJm6D22h-IE7gDkArMl-44">
          <mxGeometry x="0.0048" y="-1" relative="1" as="geometry">
            <mxPoint as="offset" />
          </mxGeometry>
        </mxCell>
        <mxCell id="dKJm6D22h-IE7gDkArMl-42" value="&lt;h1 style=&quot;margin-top: 0px;&quot;&gt;AddAndRemove&lt;/h1&gt;&lt;p&gt;Legend: &lt;span style=&quot;white-space: pre;&quot;&gt;&#x9;&lt;/span&gt;&lt;span style=&quot;background-color: light-dark(rgb(0, 0, 0), rgb(0, 0, 255));&quot;&gt;Blue&lt;/span&gt; - Created Manually|&lt;br&gt;&lt;span style=&quot;white-space: pre;&quot;&gt;&#x9;&lt;/span&gt;&lt;span style=&quot;white-space: pre;&quot;&gt;&#x9;&lt;/span&gt;&lt;span style=&quot;background-color: rgb(128, 255, 0);&quot;&gt;&lt;font style=&quot;color: rgb(0, 0, 0);&quot;&gt;Green&lt;/font&gt;&lt;/span&gt; - Created by Reaction&lt;br&gt;&lt;/p&gt;&lt;p&gt;A brake disk is added. Two Uncertainties are added to it. They are then deleted one by one.&lt;br&gt;Expected behavoir: the corresponding Uncertainty gets deleted too as well as the Locations belonging to the deleted uncertainties.The BrakeDisk and Circle itself should not be deleted.&lt;/p&gt;" style="text;html=1;whiteSpace=wrap;overflow=hidden;rounded=0;" vertex="1" parent="1">
          <mxGeometry x="550" y="20" width="250" height="190" as="geometry" />
        </mxCell>
        <mxCell id="dKJm6D22h-IE7gDkArMl-46" value="" style="endArrow=none;startArrow=none;endFill=0;startFill=0;endSize=8;html=1;verticalAlign=bottom;labelBackgroundColor=none;strokeWidth=3;rounded=0;entryX=0;entryY=0.5;entryDx=0;entryDy=0;exitX=1;exitY=0.5;exitDx=0;exitDy=0;" edge="1" parent="1" source="dKJm6D22h-IE7gDkArMl-33" target="dKJm6D22h-IE7gDkArMl-38">
          <mxGeometry width="160" relative="1" as="geometry">
            <mxPoint x="190" y="549.72" as="sourcePoint" />
            <mxPoint x="350" y="549.72" as="targetPoint" />
          </mxGeometry>
        </mxCell>
        <mxCell id="dKJm6D22h-IE7gDkArMl-47" value="Corresponding" style="edgeLabel;html=1;align=center;verticalAlign=middle;resizable=0;points=[];" vertex="1" connectable="0" parent="dKJm6D22h-IE7gDkArMl-46">
          <mxGeometry x="0.0048" y="-1" relative="1" as="geometry">
            <mxPoint as="offset" />
          </mxGeometry>
        </mxCell>
        <mxCell id="dKJm6D22h-IE7gDkArMl-49" value="Step 1: brakeDisk added. Two Uncertainties added to brakeDisk" style="rounded=0;whiteSpace=wrap;html=1;" vertex="1" parent="1">
          <mxGeometry x="20" y="10" width="260" height="40" as="geometry" />
        </mxCell>
        <mxCell id="dKJm6D22h-IE7gDkArMl-60" value="brakeDisk: BrakeDisk" style="html=1;whiteSpace=wrap;fillColor=#0050ef;fontColor=#ffffff;strokeColor=#001DBC;" vertex="1" parent="1">
          <mxGeometry x="20" y="670" width="160" height="40" as="geometry" />
        </mxCell>
        <mxCell id="dKJm6D22h-IE7gDkArMl-65" value="circle: Circle" style="html=1;whiteSpace=wrap;fillColor=#60a917;fontColor=#ffffff;strokeColor=#2D7600;" vertex="1" parent="1">
          <mxGeometry x="340" y="670" width="160" height="40" as="geometry" />
        </mxCell>
        <mxCell id="dKJm6D22h-IE7gDkArMl-66" value="" style="endArrow=none;startArrow=none;endFill=0;startFill=0;endSize=8;html=1;verticalAlign=bottom;labelBackgroundColor=none;strokeWidth=3;rounded=0;entryX=0;entryY=0.5;entryDx=0;entryDy=0;exitX=1;exitY=0.5;exitDx=0;exitDy=0;" edge="1" parent="1" source="dKJm6D22h-IE7gDkArMl-60" target="dKJm6D22h-IE7gDkArMl-65">
          <mxGeometry width="160" relative="1" as="geometry">
            <mxPoint x="170" y="669.6800000000001" as="sourcePoint" />
            <mxPoint x="330" y="669.6800000000001" as="targetPoint" />
          </mxGeometry>
        </mxCell>
        <mxCell id="dKJm6D22h-IE7gDkArMl-67" value="Corresponding" style="edgeLabel;html=1;align=center;verticalAlign=middle;resizable=0;points=[];" vertex="1" connectable="0" parent="dKJm6D22h-IE7gDkArMl-66">
          <mxGeometry x="0.0048" y="-1" relative="1" as="geometry">
            <mxPoint as="offset" />
          </mxGeometry>
        </mxCell>
        <mxCell id="dKJm6D22h-IE7gDkArMl-68" value="brakeDiskLocationTwo: UncertaintyLocation" style="html=1;whiteSpace=wrap;fillColor=#0050ef;fontColor=#ffffff;strokeColor=#001DBC;" vertex="1" parent="1">
          <mxGeometry x="20" y="770" width="160" height="60" as="geometry" />
        </mxCell>
        <mxCell id="dKJm6D22h-IE7gDkArMl-69" value="brakeDiskUncertaintyTwo: Uncertainty" style="html=1;whiteSpace=wrap;fillColor=#0050ef;fontColor=#ffffff;strokeColor=#001DBC;" vertex="1" parent="1">
          <mxGeometry x="20" y="890" width="160" height="60" as="geometry" />
        </mxCell>
        <mxCell id="dKJm6D22h-IE7gDkArMl-70" value="" style="endArrow=none;startArrow=none;endFill=0;startFill=0;endSize=8;html=1;verticalAlign=bottom;labelBackgroundColor=none;strokeWidth=3;rounded=0;entryX=0.5;entryY=0;entryDx=0;entryDy=0;exitX=0.5;exitY=1;exitDx=0;exitDy=0;" edge="1" parent="1" source="dKJm6D22h-IE7gDkArMl-68" target="dKJm6D22h-IE7gDkArMl-69">
          <mxGeometry width="160" relative="1" as="geometry">
            <mxPoint x="120" y="840" as="sourcePoint" />
            <mxPoint x="120" y="770" as="targetPoint" />
          </mxGeometry>
        </mxCell>
        <mxCell id="dKJm6D22h-IE7gDkArMl-71" value="uncertainty Location" style="edgeLabel;html=1;align=center;verticalAlign=middle;resizable=0;points=[];" vertex="1" connectable="0" parent="dKJm6D22h-IE7gDkArMl-70">
          <mxGeometry x="0.0048" y="-1" relative="1" as="geometry">
            <mxPoint as="offset" />
          </mxGeometry>
        </mxCell>
        <mxCell id="dKJm6D22h-IE7gDkArMl-72" value="" style="endArrow=none;startArrow=none;endFill=0;startFill=0;endSize=8;html=1;verticalAlign=bottom;labelBackgroundColor=none;strokeWidth=3;rounded=0;exitX=0.5;exitY=1;exitDx=0;exitDy=0;entryX=0.5;entryY=0;entryDx=0;entryDy=0;" edge="1" parent="1" source="dKJm6D22h-IE7gDkArMl-60" target="dKJm6D22h-IE7gDkArMl-68">
          <mxGeometry width="160" relative="1" as="geometry">
            <mxPoint x="200" y="710" as="sourcePoint" />
            <mxPoint x="120" y="750" as="targetPoint" />
            <Array as="points">
              <mxPoint x="100" y="740" />
            </Array>
          </mxGeometry>
        </mxCell>
        <mxCell id="dKJm6D22h-IE7gDkArMl-73" value="referencedComponents" style="edgeLabel;html=1;align=center;verticalAlign=middle;resizable=0;points=[];" vertex="1" connectable="0" parent="dKJm6D22h-IE7gDkArMl-72">
          <mxGeometry x="0.0048" y="-1" relative="1" as="geometry">
            <mxPoint x="1" as="offset" />
          </mxGeometry>
        </mxCell>
        <mxCell id="dKJm6D22h-IE7gDkArMl-74" value="circleUncertaintyOne: Uncertainty" style="html=1;whiteSpace=wrap;fillColor=#60a917;fontColor=#ffffff;strokeColor=#2D7600;" vertex="1" parent="1">
          <mxGeometry x="340" y="890" width="160" height="60" as="geometry" />
        </mxCell>
        <mxCell id="dKJm6D22h-IE7gDkArMl-75" value="circleLocationOne: UncertaintyLocation" style="html=1;whiteSpace=wrap;fillColor=#60a917;fontColor=#ffffff;strokeColor=#2D7600;" vertex="1" parent="1">
          <mxGeometry x="340" y="770" width="160" height="60" as="geometry" />
        </mxCell>
        <mxCell id="dKJm6D22h-IE7gDkArMl-76" value="" style="endArrow=none;startArrow=none;endFill=0;startFill=0;endSize=8;html=1;verticalAlign=bottom;labelBackgroundColor=none;strokeWidth=3;rounded=0;exitX=0.5;exitY=1;exitDx=0;exitDy=0;entryX=0.5;entryY=0;entryDx=0;entryDy=0;" edge="1" parent="1" source="dKJm6D22h-IE7gDkArMl-65" target="dKJm6D22h-IE7gDkArMl-75">
          <mxGeometry width="160" relative="1" as="geometry">
            <mxPoint x="410" y="720" as="sourcePoint" />
            <mxPoint x="410" y="760" as="targetPoint" />
            <Array as="points">
              <mxPoint x="419.77" y="760" />
            </Array>
          </mxGeometry>
        </mxCell>
        <mxCell id="dKJm6D22h-IE7gDkArMl-77" value="referencedComponents" style="edgeLabel;html=1;align=center;verticalAlign=middle;resizable=0;points=[];" vertex="1" connectable="0" parent="dKJm6D22h-IE7gDkArMl-76">
          <mxGeometry x="0.0048" y="-1" relative="1" as="geometry">
            <mxPoint x="1" as="offset" />
          </mxGeometry>
        </mxCell>
        <mxCell id="dKJm6D22h-IE7gDkArMl-78" value="" style="endArrow=none;startArrow=none;endFill=0;startFill=0;endSize=8;html=1;verticalAlign=bottom;labelBackgroundColor=none;strokeWidth=3;rounded=0;entryX=0.5;entryY=0;entryDx=0;entryDy=0;exitX=0.5;exitY=1;exitDx=0;exitDy=0;" edge="1" parent="1" source="dKJm6D22h-IE7gDkArMl-75" target="dKJm6D22h-IE7gDkArMl-74">
          <mxGeometry width="160" relative="1" as="geometry">
            <mxPoint x="410" y="830" as="sourcePoint" />
            <mxPoint x="410" y="890" as="targetPoint" />
          </mxGeometry>
        </mxCell>
        <mxCell id="dKJm6D22h-IE7gDkArMl-79" value="uncertainty Location" style="edgeLabel;html=1;align=center;verticalAlign=middle;resizable=0;points=[];" vertex="1" connectable="0" parent="dKJm6D22h-IE7gDkArMl-78">
          <mxGeometry x="0.0048" y="-1" relative="1" as="geometry">
            <mxPoint as="offset" />
          </mxGeometry>
        </mxCell>
        <mxCell id="dKJm6D22h-IE7gDkArMl-80" value="" style="endArrow=none;startArrow=none;endFill=0;startFill=0;endSize=8;html=1;verticalAlign=bottom;labelBackgroundColor=none;strokeWidth=3;rounded=0;entryX=0;entryY=0.5;entryDx=0;entryDy=0;exitX=1;exitY=0.5;exitDx=0;exitDy=0;" edge="1" parent="1" source="dKJm6D22h-IE7gDkArMl-69" target="dKJm6D22h-IE7gDkArMl-74">
          <mxGeometry width="160" relative="1" as="geometry">
            <mxPoint x="190" y="919.72" as="sourcePoint" />
            <mxPoint x="350" y="919.72" as="targetPoint" />
          </mxGeometry>
        </mxCell>
        <mxCell id="dKJm6D22h-IE7gDkArMl-81" value="Corresponding" style="edgeLabel;html=1;align=center;verticalAlign=middle;resizable=0;points=[];" vertex="1" connectable="0" parent="dKJm6D22h-IE7gDkArMl-80">
          <mxGeometry x="0.0048" y="-1" relative="1" as="geometry">
            <mxPoint as="offset" />
          </mxGeometry>
        </mxCell>
        <mxCell id="dKJm6D22h-IE7gDkArMl-82" value="Step 2: brakeDiskUncertaintyOne deleted" style="rounded=0;whiteSpace=wrap;html=1;" vertex="1" parent="1">
          <mxGeometry x="20" y="610" width="260" height="40" as="geometry" />
        </mxCell>
        <mxCell id="dKJm6D22h-IE7gDkArMl-88" value="brakeDiskUncertaintyTwo: Uncertainty" style="html=1;whiteSpace=wrap;fillColor=#0050ef;fontColor=#ffffff;strokeColor=#001DBC;" vertex="1" parent="1">
          <mxGeometry x="20" y="1030" width="160" height="60" as="geometry" />
        </mxCell>
        <mxCell id="dKJm6D22h-IE7gDkArMl-93" value="circleUncertaintyOne: Uncertainty" style="html=1;whiteSpace=wrap;fillColor=#60a917;fontColor=#ffffff;strokeColor=#2D7600;" vertex="1" parent="1">
          <mxGeometry x="340" y="1030" width="160" height="60" as="geometry" />
        </mxCell>
        <mxCell id="dKJm6D22h-IE7gDkArMl-99" value="" style="endArrow=none;startArrow=none;endFill=0;startFill=0;endSize=8;html=1;verticalAlign=bottom;labelBackgroundColor=none;strokeWidth=3;rounded=0;entryX=0;entryY=0.5;entryDx=0;entryDy=0;exitX=1;exitY=0.5;exitDx=0;exitDy=0;" edge="1" parent="1" source="dKJm6D22h-IE7gDkArMl-88" target="dKJm6D22h-IE7gDkArMl-93">
          <mxGeometry width="160" relative="1" as="geometry">
            <mxPoint x="190" y="1059.72" as="sourcePoint" />
            <mxPoint x="350" y="1059.72" as="targetPoint" />
          </mxGeometry>
        </mxCell>
        <mxCell id="dKJm6D22h-IE7gDkArMl-100" value="Corresponding" style="edgeLabel;html=1;align=center;verticalAlign=middle;resizable=0;points=[];" vertex="1" connectable="0" parent="dKJm6D22h-IE7gDkArMl-99">
          <mxGeometry x="0.0048" y="-1" relative="1" as="geometry">
            <mxPoint as="offset" />
          </mxGeometry>
        </mxCell>
        <mxCell id="dKJm6D22h-IE7gDkArMl-101" value="Step 3: brakeDiskUncertaintyTwo deleted" style="rounded=0;whiteSpace=wrap;html=1;" vertex="1" parent="1">
          <mxGeometry x="20" y="980" width="260" height="40" as="geometry" />
        </mxCell>
      </root>
    </mxGraphModel>
  </diagram>
</mxfile>
